<svg width="48" height="451" viewBox="0 0 48 451" fill="none" xmlns="http://www.w3.org/2000/svg">
<path d="M46.5 1H1.5" stroke="#B5B29E" stroke-width="2" stroke-linecap="round"/>
<path d="M30 11H18" stroke="#B5B29E" stroke-width="2" stroke-linecap="round"/>
<path d="M30 21H18" stroke="#B5B29E" stroke-width="2" stroke-linecap="round"/>
<path d="M30 31H18" stroke="#B5B29E" stroke-width="2" stroke-linecap="round"/>
<path d="M30 41H18" stroke="#B5B29E" stroke-width="2" stroke-linecap="round"/>
<path d="M35.5 51H12.5" stroke="#B5B29E" stroke-width="2" stroke-linecap="round"/>
<path d="M30 61H18" stroke="#B5B29E" stroke-width="2" stroke-linecap="round"/>
<path d="M30 71H18" stroke="#B5B29E" stroke-width="2" stroke-linecap="round"/>
<path d="M30 81H18" stroke="#B5B29E" stroke-width="2" stroke-linecap="round"/>
<path d="M30 91H18" stroke="#B5B29E" stroke-width="2" stroke-linecap="round"/>
<path d="M46.5 101H1.5" stroke="#B5B29E" stroke-width="2" stroke-linecap="round"/>
<path d="M30 111H18" stroke="#B5B29E" stroke-width="2" stroke-linecap="round"/>
<path d="M30 121H18" stroke="#B5B29E" stroke-width="2" stroke-linecap="round"/>
<path d="M30 131H18" stroke="#B5B29E" stroke-width="2" stroke-linecap="round"/>
<path d="M30 141H18" stroke="#B5B29E" stroke-width="2" stroke-linecap="round"/>
<path d="M35.5 151H12.5" stroke="#B5B29E" stroke-width="2" stroke-linecap="round"/>
<path d="M30 161H18" stroke="#B5B29E" stroke-width="2" stroke-linecap="round"/>
<path d="M30 171H18" stroke="#B5B29E" stroke-width="2" stroke-linecap="round"/>
<path d="M30 181H18" stroke="#B5B29E" stroke-width="2" stroke-linecap="round"/>
<path d="M30 191H18" stroke="#B5B29E" stroke-width="2" stroke-linecap="round"/>
<path d="M46.5 201H1.5" stroke="#B5B29E" stroke-width="2" stroke-linecap="round"/>
<path d="M30 211H18" stroke="#B5B29E" stroke-width="2" stroke-linecap="round"/>
<path d="M30 221H18" stroke="#B5B29E" stroke-width="2" stroke-linecap="round"/>
<path d="M30 231H18" stroke="#B5B29E" stroke-width="2" stroke-linecap="round"/>
<path d="M30 241H18" stroke="#B5B29E" stroke-width="2" stroke-linecap="round"/>
<path d="M35.5 251H12.5" stroke="#B5B29E" stroke-width="2" stroke-linecap="round"/>
<path d="M30 261H18" stroke="#B5B29E" stroke-width="2" stroke-linecap="round"/>
<path d="M30 271H18" stroke="#B5B29E" stroke-width="2" stroke-linecap="round"/>
<path d="M30 281H18" stroke="#B5B29E" stroke-width="2" stroke-linecap="round"/>
<path d="M30 291H18" stroke="#B5B29E" stroke-width="2" stroke-linecap="round"/>
<path d="M46.5 301H1.5" stroke="#B5B29E" stroke-width="2" stroke-linecap="round"/>
<path d="M30 311H18" stroke="#B5B29E" stroke-width="2" stroke-linecap="round"/>
<path d="M30 321H18" stroke="#B5B29E" stroke-width="2" stroke-linecap="round"/>
<path d="M30 331H18" stroke="#B5B29E" stroke-width="2" stroke-linecap="round"/>
<path d="M30 341H18" stroke="#B5B29E" stroke-width="2" stroke-linecap="round"/>
<path d="M35.5 351H12.5" stroke="#B5B29E" stroke-width="2" stroke-linecap="round"/>
<path d="M30 361H18" stroke="#B5B29E" stroke-width="2" stroke-linecap="round"/>
<path d="M30 371H18" stroke="#B5B29E" stroke-width="2" stroke-linecap="round"/>
<path d="M30 381H18" stroke="#B5B29E" stroke-width="2" stroke-linecap="round"/>
<path d="M30 391H18" stroke="#B5B29E" stroke-width="2" stroke-linecap="round"/>
<path d="M46.5 401H1.5" stroke="#B5B29E" stroke-width="2" stroke-linecap="round"/>
<path d="M30 411H18" stroke="#B5B29E" stroke-width="2" stroke-linecap="round"/>
<path d="M30 421H18" stroke="#B5B29E" stroke-width="2" stroke-linecap="round"/>
<path d="M30 431H18" stroke="#B5B29E" stroke-width="2" stroke-linecap="round"/>
<path d="M30 441H18" stroke="#B5B29E" stroke-width="2" stroke-linecap="round"/>
<path d="M35.5 451H12.5" stroke="#B5B29E" stroke-width="2" stroke-linecap="round"/>
</svg>
